<svg id="图层_1" data-name="图层 1" xmlns="http://www.w3.org/2000/svg" viewBox="0 0 500 500"><defs><style>.cls-1{fill:#13ae67;}</style></defs><title>logo</title><polygon class="cls-1" points="410 180.72 410 134.54 410 134.53 370.01 111.44 370 111.44 330.01 88.35 330 88.35 330 88.34 290 65.25 290 111.44 290.01 111.44 330 134.53 330.01 134.53 370 157.62 370 157.63 370 203.81 370 203.82 370 250 370 250.01 370 296.19 370 342.38 330 365.47 290 388.57 290 434.75 330 411.66 370 388.57 410 365.47 410 319.29 410 319.28 450 296.19 450 250 450 203.82 450 203.81 410 180.72"/><polygon class="cls-1" points="130 342.38 130 296.19 130 250.01 130 203.82 130 157.63 130 157.62 169.99 134.53 170 134.53 210 111.44 210 65.25 170 88.34 130 111.44 129.99 111.44 90 134.53 90 134.54 90 180.72 89.99 180.72 50 203.81 50 203.82 50 250 50 250.01 50 296.19 90 319.29 90 365.47 130 388.57 170 411.66 210 434.75 210 388.57 170 365.47 130 342.38"/><path class="cls-1" d="M290,342.38l40-23.09V180.72l-40-23.09h0l-40-23.09h0l-40,23.09-40,23.1V319.29l40,23.09V296.19l40-23.09,40,23.09ZM250,226.91,210,250V203.82l40-23.09,40,23.09V250Z"/></svg>